<svg width="176" height="40" viewBox="0 0 176 40" fill="none" xmlns="http://www.w3.org/2000/svg">
<g clip-path="url(#clip0_6001_5)">
<path d="M16.125 1.5791C20.9459 1.5791 24.9513 3.22492 27.6445 6.18262L23.9619 9.50684C21.9318 7.40611 19.4137 6.30566 16.4629 6.30566C13.5674 6.3057 11.0612 7.30187 9.27637 9.04102C7.49052 10.7813 6.45516 13.2374 6.45508 16.0996C6.45508 18.9619 7.48889 21.4188 9.27441 23.1592C11.0589 24.8985 13.5656 25.8945 16.4629 25.8945C19.415 25.8945 21.9339 24.7919 23.9648 22.6523L27.6465 25.9727C24.9539 28.9689 20.9475 30.6172 16.083 30.6172L15.6641 30.6123C6.90915 30.4229 0.500128 24.4084 0.5 16.0967C0.5 7.65708 7.11342 1.57915 16.125 1.5791Z" fill="#F2674E" stroke="#F2674E"/>
<path d="M69.3551 9.29459H75.2123V14.2733H69.524L69.4571 31.1171H62.836L62.9029 14.2733H59.3125V9.29459H62.9029V8.29673C62.9029 3.2792 65.9759 0 71.6607 0C73.5298 0 75.4799 0.373758 76.7119 1.20237L74.9695 5.89198C74.2479 5.39481 73.3151 5.10215 72.2978 5.10215C70.3442 5.10215 69.3515 6.1388 69.3515 8.33904V9.29107L69.3551 9.29459Z" fill="#082340"/>
<path d="M76.5293 19.6222C76.5293 12.9016 81.8339 8.13086 89.0922 8.13086C96.3504 8.13086 101.609 12.9016 101.609 19.6222C101.609 26.3428 96.28 31.1135 89.0218 31.1135C81.7635 31.1135 76.5293 26.3428 76.5293 19.6222ZM94.9037 19.6222C94.9037 15.7647 92.401 13.441 89.0922 13.441C85.7834 13.441 83.2349 15.7647 83.2349 19.6222C83.2349 23.4796 85.7799 25.8033 89.0922 25.8033C92.4045 25.8033 94.9037 23.4796 94.9037 19.6222Z" fill="#082340"/>
<path d="M120.411 8.1167V14.1815C119.852 14.1391 119.419 14.0968 118.901 14.0968C115.198 14.0968 112.741 16.0749 112.741 20.4155L112.674 31.1134H105.951V8.4552H112.439V11.4453C114.075 9.2556 116.831 8.1167 120.408 8.1167" fill="#082340"/>
<path d="M147.481 8.46241V27.0481C147.481 35.3448 142.831 39.16 134.598 39.16C130.269 39.16 126.069 38.1233 123.394 36.0888L126.027 31.4415C127.981 32.9788 131.163 33.9732 134.091 33.9732C138.759 33.9732 140.864 31.8999 140.864 27.8732V26.9176C139.121 28.7864 136.619 29.6996 133.648 29.6996C127.326 29.6996 122.232 25.4261 122.232 18.9135C122.232 12.401 127.326 8.12744 133.648 8.12744C136.833 8.12744 139.463 9.16409 141.202 11.322V8.45889H147.481V8.46241ZM140.948 18.9171C140.948 15.6414 138.446 13.4412 134.964 13.4412C131.483 13.4412 128.938 15.6414 128.938 18.9171C128.938 22.1927 131.487 24.393 134.964 24.393C138.442 24.393 140.948 22.1927 140.948 18.9171Z" fill="#082340"/>
<path d="M175.874 21.449H158.601C159.238 24.2275 161.656 25.9306 165.137 25.9306C167.559 25.9306 169.298 25.2254 170.868 23.7727L174.388 27.5067C172.265 29.8692 169.017 31.1174 164.902 31.1174C157.006 31.1174 151.938 26.262 151.938 19.6261C151.938 12.9901 157.158 8.13477 164.117 8.13477C171.076 8.13477 176 12.5317 176 19.7107C176 20.2079 175.916 20.9131 175.874 21.4525M158.516 17.6727H169.763C169.295 14.8518 167.13 13.0289 164.162 13.0289C161.195 13.0289 158.985 14.8131 158.52 17.6727" fill="#082340"/>
<path d="M44.239 25.8033C40.9373 25.7927 38.4029 23.4726 38.4029 19.6222C38.4029 15.7717 40.9373 13.4516 44.239 13.441V8.13086C36.9913 8.14144 31.6973 12.9086 31.6973 19.6222C31.6973 26.3357 36.935 31.1135 44.1897 31.1135C44.2038 31.1135 44.2214 31.1135 44.2355 31.1135V25.8033H44.239Z" fill="#F15B40"/>
<path d="M44.2402 25.8033C47.542 25.7927 50.0764 23.4726 50.0764 19.6222C50.0764 15.7717 47.542 13.4516 44.2402 13.441V8.13086C51.4879 8.14144 56.782 12.9086 56.782 19.6222C56.782 26.3357 51.5442 31.1135 44.2895 31.1135C44.2754 31.1135 44.2578 31.1135 44.2438 31.1135V25.8033H44.2402Z" fill="#082340"/>
</g>
<defs>
<clipPath id="clip0_6001_5">
<rect width="176" height="39.16" fill="white"/>
</clipPath>
</defs>
</svg>
